
        <svg xmlns="http://www.w3.org/2000/svg" xmlns:xlink="http://www.w3.org/1999/xlink" version="1.1" width="3193.548387096774" height="3156.684323813824" viewBox="0 0 3193.548387096774 3156.684323813824">
			
			<g transform="scale(9.67741935483871) translate(10, 10)">
				<defs id="SvgjsDefs1106"><linearGradient id="SvgjsLinearGradient1115"><stop id="SvgjsStop1116" stop-color="#905e26" offset="0"/><stop id="SvgjsStop1117" stop-color="#f5ec9b" offset="0.5"/><stop id="SvgjsStop1118" stop-color="#905e26" offset="1"/></linearGradient><linearGradient id="SvgjsLinearGradient1119"><stop id="SvgjsStop1120" stop-color="#905e26" offset="0"/><stop id="SvgjsStop1121" stop-color="#f5ec9b" offset="0.5"/><stop id="SvgjsStop1122" stop-color="#905e26" offset="1"/></linearGradient><linearGradient id="SvgjsLinearGradient1123"><stop id="SvgjsStop1124" stop-color="#905e26" offset="0"/><stop id="SvgjsStop1125" stop-color="#f5ec9b" offset="0.5"/><stop id="SvgjsStop1126" stop-color="#905e26" offset="1"/></linearGradient><linearGradient id="SvgjsLinearGradient1127"><stop id="SvgjsStop1128" stop-color="#905e26" offset="0"/><stop id="SvgjsStop1129" stop-color="#f5ec9b" offset="0.5"/><stop id="SvgjsStop1130" stop-color="#905e26" offset="1"/></linearGradient></defs><g id="SvgjsG1107" featureKey="rootContainer" transform="matrix(2.9388544864769783,0,0,2.9388544864769783,-0.11002385329729163,0.09803762587321144)" fill="#fff"><path xmlns="http://www.w3.org/2000/svg" d="M104.6 41.3a52.2 52.2 0 0 0-3.5-11.2A51.1 51.1 0 0 0 44.3 1a49.6 49.6 0 0 0-5.7 1.5 49.1 49.1 0 0 0-7.9 2.7A51.6 51.6 0 0 0 6.3 77a53.7 53.7 0 0 0 4.1 6.4 57 57 0 0 0 5 5.7 51.7 51.7 0 0 0 55.3 11.5l3.3-1.4 3-1.5a50.9 50.9 0 0 0 5.8-3.8l2.7-2.1 1.2-1.1 1.1-.9 2-1.8.7-.6.6-.7 1.8-2a48.5 48.5 0 0 0 5.9-8.3 50.4 50.4 0 0 0 5.6-14.7 51.6 51.6 0 0 0 .2-20.4zM87.1 88.6l-1.2 1.1-1.2 1.1-2.6 2.1a49.5 49.5 0 0 1-5.7 3.6l-3 1.5-3.2 1.3-4.9 1.6h-.5a50.9 50.9 0 0 1-20.3.1 51.8 51.8 0 0 1-11.1-3.6A50.5 50.5 0 0 1 22.9 91a52 52 0 0 1-9.1-9.4 50.3 50.3 0 0 1-3.7-5.7c-.6-1-1.1-2-1.6-3.1s-1-2.1-1.3-3.2a50.6 50.6 0 0 1 8.6-50.8l.8-.8.5-.6.6-.6 1.2-1.1 2.4-2.1A50.5 50.5 0 0 1 62.4 3.2a48.5 48.5 0 0 1 14.7 5.2 47 47 0 0 1 8.3 5.8l2 1.8.7.6.6.7 1.8 2a49.7 49.7 0 0 1 11.3 22.9 50.8 50.8 0 0 1-.1 20.2 51.6 51.6 0 0 1-3.6 11 50.2 50.2 0 0 1-6.6 10.5l-2.1 2.4zm-44.9 13a50.1 50.1 0 0 1-13.7-5 51.8 51.8 0 0 1-6.2-4 55.2 55.2 0 0 1-5.5-4.8 49.9 49.9 0 0 1-11-53.2c.4-1.1.9-2.1 1.3-3.1l.6-1.3a50.2 50.2 0 0 0-3.4 11 51.3 51.3 0 0 0 2.4 28.5c.4 1.1.9 2.2 1.4 3.2s1 2.1 1.6 3.1a50.6 50.6 0 0 0 3.7 5.8 51.5 51.5 0 0 0 9.2 9.5 50.9 50.9 0 0 0 10.7 6.5 51 51 0 0 0 28.7 3.9 50.3 50.3 0 0 1-19.8-.1zm61.9-39.9a50.2 50.2 0 0 1-5.5 14.7 48.4 48.4 0 0 1-5.8 8.3l-1.8 2-.6.7-.7.6-1.9 1.7h.2l2.3-2.4 2.1-2.5A51.3 51.3 0 0 0 98.9 74a51.4 51.4 0 0 0 3.2-31.6 49.6 49.6 0 0 0-2.5-8.2 49.4 49.4 0 0 0-3.1-6.5 48.7 48.7 0 0 0-5.9-8.3l-1.8-2-.6-.7-.7-.6-2-1.8A49.9 49.9 0 0 0 77.3 8a49.3 49.3 0 0 0-6.5-3.2 49.8 49.8 0 0 0-8.2-2.6A52.2 52.2 0 0 0 49.9 1a50.8 50.8 0 0 1 22.7 3.2l3.2 1.3 3.1 1.6a50.1 50.1 0 0 1 5.7 3.7l2.6 2.1 1.2 1.1 1.2 1.1 2.3 2.3 2.1 2.4a50.4 50.4 0 0 1 6.5 10.5 51.6 51.6 0 0 1 3.6 11 51.1 51.1 0 0 1 0 20.3z"/></g><g id="SvgjsG1108" featureKey="symbolFeature-0" transform="matrix(0.9904031497407397,0,0,0.9904031497407397,105.94138191902353,70.52399188951765)" fill="#fff"><path xmlns="http://www.w3.org/2000/svg" d="M88.6833725,63.6796341c-0.2127151-0.4561806-0.4561157-0.9021111-0.738739-1.4161835  c-0.8510513-1.5557556-1.6902084-4.3217468-3.2817154-7.7771301c-1.08255-2.3506813-2.5566254-4.4324036-2.5055695-5.290287  c0.076561-1.3395653,0.3642502-4.7523689,0.3965836-4.8902931c-0.0493546-1.8927383-0.2535934-3.7327652-0.5974045-5.5149651  v-0.0101852c0-1.1761971-2.3098679-2.2655869-6.2502899-3.162571c-0.0647202-0.3863945-0.1549454-0.7660141-0.270668-1.1370354  c-0.6570587-2.1124039-2.0511017-3.8196316-3.1932526-5.0724449c-1.4859695-1.6340237-3.1200562-3.0962009-4.8630295-4.3762226  c-0.4255524-0.9242554-0.9259644-1.8383217-1.4809036-2.7234116c-0.1770325-3.1762352-0.8408051-6.2060642-1.9897919-9.1184025  c-0.4953423-1.2528143-1.1676559-2.611105-2.40345-3.1881304c-0.8374481-0.3915157-1.7651176-0.3268518-2.5600433-0.1872778  c-1.2221336-3.4996114-3.8314705-6.2162514-6.9226074-7.0400944c-3.3940773-0.9055269-6.665596,0.5226097-9.0400734,2.8579223  c-1.0111198,0.4817381-1.8400879,1.1387401-2.4579277,1.9370828c-4.0579071,0.1991148-8.1635208,2.8442593-10.5941811,6.9226046  c-0.1787376,0.0034161-0.3574753,0.0068321-0.5362129,0.0118961c-1.8485088,0.0527678-3.7497864,0.270669-5.1370506,1.4860277  c-2.3540993,2.062995-2.1668224,5.8008852-1.6732464,9.1847734c0.3217278,2.204277,0.679203,4.4255733,1.164299,6.5720196  c-2.74049,0.8714867-4.1702766,2.330246-4.9021893,3.7514954c-4.2673302,0.9191895-6.7882128,2.052803-6.7882128,3.2817688  v0.0051231c-0.5889215,2.6825981-0.891922,5.4179077-0.891922,8.1277733c0,7.2120018,3.3821802,13.9609909,7.3925047,19.4691811  c4.4196854,6.0702591,5.9193172,20.9793015,6.4264393,26.9589233l0.0000172,0.0000076  c11.8453617,5.5096512,25.5113888,5.5459213,37.3858337,0.0992355l0.2163658-0.0992432  c0.0014725-0.3455811-0.000824-5.533638-0.0111313-5.9408188c-0.0646629-2.474884,2.8681679-1.9523315,6.2060661-1.2544632  c0.0016479,0,0.0016479,0.001709,0.0016479,0.001709c0.001709,0,0.001709,0,0.003418,0  c0.6859741,0.146347,1.2681198,0.3097763,1.831543,0.4663696c0.697876,0.195755,1.4196014,0.3999939,2.4272461,0.5974655  c0.199173,0.0391617,0.4238434,0.0885086,0.6706619,0.1412811c1.7038116,0.3710785,4.5583191,0.0612488,6.1311569-1.1472855  c0.8340302-0.6416855,1.2970428-1.8247147,1.3770142-3.5166245c0.0902252-1.9455643,0.4783249-5.6255646,0.9941025-7.9915619  c0.0646667-0.2995834,0.1650772-0.5838547,0.3029404-0.820488c0.0851593-0.148056-0.2093582-0.6876221-0.7047043-0.5991058  l-3.3140411-0.1089554c-0.200882-0.0034103-0.200882-0.2978745-0.005127-0.3063583l3.4791794-0.1855698  c0.548111-0.0749054,1.1081161-0.3233719,0.8000488-1.1404419l-0.2792053-3.0502701c0,0-0.1548843-2.0102234,2.1191788-2.0936127  c0.0374527-0.001709,0.074913-0.0136032,0.1123657-0.0170212c0.7370377-0.078331,2.1379013-0.268959,2.9277115-0.4833908  C88.6135864,65.6319733,89.1020966,64.5783844,88.6833725,63.6796341z M18.1820164,40.1661453  c-2.2876673-0.5532341-3.4484921-1.0621185-4.0153303-1.3855553c0.5702534-0.3233795,1.7379103-0.8357391,4.0460138-1.3906822  C18.0476246,38.3006172,18.0527496,39.2401848,18.1820164,40.1661453z M71.653389,29.9566479  c1.0842667,1.1898003,2.4085159,2.8068638,3.0178757,4.7660313c0.073204,0.2332115,0.1345139,0.471489,0.1838608,0.7114754  c-1.8094025-0.3778496-3.916626-0.7183075-6.2673111-1.0110588c0.3642502-1.661293,0.4442825-3.3464355,0.1923447-4.9498348  c-0.153183-0.9770813-0.422142-1.9659996-0.7829742-2.951561C69.2924652,27.56003,70.5163574,28.7072506,71.653389,29.9566479z   M65.9460907,23.9565907c0.0237885,0.0425205,0.0459366,0.0850983,0.0697861,0.1276188  c-0.0238495-0.0153122-0.0459976-0.0306244-0.0697861-0.0459347V23.9565907z M65.9324265,24.9982758  c0.2757874,0.1855698,0.546463,0.3762035,0.81707,0.5719624c0.5957565,1.3361454,1.0297852,2.6962032,1.239151,4.0289345  c0.0970535,0.6127739,0.1412811,1.2375031,0.1378632,1.8707123c-0.471489-1.6851425-1.3668289-3.5643349-2.2876663-4.7507191  C65.8847809,26.1404324,65.9154663,25.5668221,65.9324265,24.9982758z M65.2958603,30.724308  c0.4306183,1.1149483,0.7710724,2.270649,1.0485153,3.4417801c-0.2655411-0.0289764-0.5345078-0.0561829-0.8051147-0.0817413  c-0.1565933-0.706356-0.3234406-1.4093513-0.4987564-2.1089325C65.132431,31.5549831,65.2175293,31.1396751,65.2958603,30.724308z   M65.0932693,25.8323669c-0.9378586-1.0689526-1.9472122-2.0800743-2.9872475-3.0553875  c1.0366173,0.5072384,2.0510979,1.0757847,3.0349464,1.7004547C65.13414,24.9267807,65.1188278,25.3778362,65.0932693,25.8323669z   M64.5741348,30.2119465c-0.2263794-0.8204269-0.4680786-1.6357327-0.7217255-2.4476795  c0.3166046,0.5208435,0.6025848,1.0553493,0.8630066,1.6051674C64.6711884,29.6485825,64.6251907,29.9293804,64.5741348,30.2119465z   M64.7001038,34.0026627c-0.0510559-0.0051231-0.1021194-0.0101891-0.1531754-0.0136032  c0.0289154-0.1021805,0.0561829-0.2025909,0.0816803-0.3030014C64.6524582,33.7915916,64.6762543,33.8971291,64.7001038,34.0026627z   M62.1911201,30.1608868l-0.7131844-5.3957653c0.2893372,0.285923,0.5651283,0.5820904,0.8306732,0.8867989  c0.7267876,2.0783081,1.3617058,4.190712,1.9064026,6.3319759c-0.1429901,0.6383305-0.3030014,1.2817287-0.4783249,1.9336681  c-0.4391594-0.0391655-0.8850899-0.076622-1.3379135-0.1106606C62.4941216,32.6749954,62.3630257,31.4596367,62.1911201,30.1608868z   M57.156189,35.1839828c0.2025299,0.0101852,0.4034081,0.0203743,0.6042328,0.0306244  c-0.0697861,0.8986931-0.2603645,1.7804298-0.6008186,2.6212921C57.2378693,37.0103455,57.2378693,36.1252556,57.156189,35.1839828z   M43.0181084,33.277523c-0.211071-0.1906357-0.4272041-0.3676643-0.6468163-0.5344467  c-0.9701881-2.478363-1.7378502-5.1796322-2.2774773-8.0648212c0.2229652,0.0511189,0.4442825,0.1123676,0.6604729,0.1855698  c0.0067749,0.1259708,0.0170212,0.2535896,0.0306244,0.3829765c0.199173,1.7106419,1.1386833,3.2579174,2.6468544,4.3592033  c0.0646629,0.0493507,0.1310349,0.0953465,0.1974068,0.1412811l0.3983459,1.5165939  c0.1667824,0.6366253,0.3557091,1.3089962,0.5719032,1.9915562C44.0700378,33.2605019,43.5424232,33.267334,43.0181084,33.277523z   M43.5576782,34.9712029c1.2409172,1.4212456,2.1992111,3.097908,2.8511467,4.9004822  c-0.3982849-0.4459915-0.7983398-0.9226074-1.2000465-1.4315529c-0.6774368-1.0859146-1.3055229-2.2433815-1.8774834-3.4655724  C43.406208,34.9728546,43.4811172,34.9728546,43.5576782,34.9712029z M34.1941681,31.7268906  c-0.0220871-0.1719074-0.0391655-0.3455219-0.0544777-0.5174866c0.3660164-0.0016499,0.7302055,0.0051231,1.0910988,0.0221443  c-0.0408134,0.614481-0.0527687,1.2289619-0.0425224,1.8383217c-0.136219-0.1804466-0.274086-0.3625412-0.408535-0.5429878  C34.5805588,32.2613373,34.384861,31.9958515,34.1941681,31.7268906z M34.5839729,33.6009598  c-0.0119553,0.0017052-0.0254974,0.0017052-0.0374527,0.0034142c-0.0068321-0.0255585-0.013607-0.0527687-0.0204391-0.0783272  C34.5448112,33.5516052,34.5635986,33.5753975,34.5839729,33.6009598z M35.3295479,35.2656631  c0.0340424,0.3148994,0.0731468,0.6280861,0.1174316,0.9395676c-0.136158-0.3046494-0.2621269-0.6144791-0.3778496-0.9259605  C35.1559334,35.274147,35.2426834,35.2690811,35.3295479,35.2656631z M35.3005753,30.4162426  c-0.3999977-0.0187263-0.8034096-0.0255585-1.2102356-0.0221424c0-0.0136051-0.0016479-0.0272083-0.0016479-0.0408707  c-0.0442886-1.5404453,0.1429291-3.0859528,0.5429268-4.5890007c0.5327988-0.4323273,1.166008-0.7659531,1.8791924-0.9837952  c0.1565933-0.0477028,0.3148956-0.0885143,0.4749069-0.1242619C36.1142311,26.3668137,35.5252495,28.3311043,35.3005753,30.4162426z   M33.069088,26.256155c0.0033569-0.1310349,0.0067749-0.2637787,0.0101891-0.3965797  c0.1276207-3.9932461,1.1404495-6.8936882,3.0111008-8.6247673c0.6774368-0.6247292,1.4621162-1.0893879,2.2774811-1.4536362  c0.1072426,0.0136032,0.2127762,0.0289154,0.3183136,0.0425196c-0.0391655,0.4851542-0.064724,0.9804373-0.076622,1.4859686  c-0.0323296,0.0323906-0.0646629,0.0663719-0.0952873,0.0987625c-2.1992111,2.2621689-3.7702789,4.9974766-4.5873489,7.8928547  C33.6052437,25.5872574,33.3175545,25.9072189,33.069088,26.256155z M33.5354576,27.0153351  c-0.1957588,1.1115322-0.2808571,2.2366085-0.2485275,3.3583298c-0.0067711-0.0084801-0.0118942-0.0187283-0.0187263-0.0272083  c-0.0902214-0.7898045-0.1514702-1.5830231-0.1804466-2.3745346c0.0340424-0.0987034,0.0697899-0.1956997,0.1089516-0.2910461  C33.293705,27.4493713,33.4060707,27.2264042,33.5354576,27.0153351z M32.2792282,25.8323669  c-0.0220871,0.6706066-0.0203781,1.3446865,0.0017052,2.0170002c-0.0408096,0.129385-0.0782661,0.2587719-0.1123047,0.3898067  c-0.495285-1.1982803-0.7557659-2.4272423-0.621315-3.6851215c0.1549454-1.4485722,0.830677-2.7694073,1.5642967-3.9354153  C32.6213913,22.0995426,32.3422394,23.8408089,32.2792282,25.8323669z M33.0163231,33.7030792  c-0.0051231,0-0.0119553,0.0017052-0.0170784,0.0017052c-0.0101891-0.0749092-0.0220871-0.1514702-0.0323334-0.2297974  C32.9822807,33.5516052,32.9992447,33.6264572,33.0163231,33.7030792z M32.1992493,33.7626762  c-1.0910358,0.0799751-2.1532154,0.1702003-3.1795902,0.2689018c-0.1395741-0.5531731-0.2604218-1.101284-0.3643074-1.6408539  c-0.0442276-0.2280922-0.0868073-0.4613037-0.1276188-0.6978741c1.1353245-0.1531792,2.274065-0.2944603,3.4009075-0.3846836  C31.976284,32.164341,32.0903587,32.9983749,32.1992493,33.7626762z M36.5312462,15.864563  c0.073143-0.0919313,0.148056-0.1838617,0.2212563-0.2757339c0.0613098,0.006773,0.1225548,0.0136042,0.1838608,0.0204363  C36.800148,15.6892405,36.6656952,15.7743397,36.5312462,15.864563z M37.3686943,14.8415461  c0.5753174-0.6893339,1.165947-1.3617067,1.7702408-2.0204163c-0.139576,0.61619-0.2536507,1.2510481-0.3387489,1.9081087  c-0.1838036,0.069787-0.3676643,0.1412821-0.5497589,0.2195501C37.9559669,14.9113331,37.6631546,14.8755856,37.3686943,14.8415461z   M36.2775955,24.0059414c-0.4527626,0.137867-0.8766098,0.3166046-1.2697754,0.5327396  c0.7642441-2.1889648,1.9863777-4.2587318,3.6017303-6.0528259c0.0101891,0.5293827,0.0340424,1.0723686,0.073204,1.6238365  c-0.2434006,0.81707-0.3898087,1.6647053-0.4494057,2.5277138c-0.2620697,0.3540592-0.5105972,0.7234306-0.7438087,1.1098232  c-0.001709,0-0.0051231,0.0016499-0.0084801,0.0016499C37.072464,23.7999954,36.6691132,23.8868027,36.2775955,24.0059414z   M39.9832115,31.3779526c-0.7115326-0.2944603-1.4468613-0.5106544-2.2026253-0.6638317  c0.0936394-0.61619,0.197464-1.2425671,0.3064156-1.8757763c0.1293869-0.757473,0.2621307-1.4893856,0.4187241-2.1872578  C38.8087273,28.24259,39.3261528,29.8375092,39.9832115,31.3779526z M40.5006409,32.5149841  c0.1310921,0.2723198,0.2655449,0.5446968,0.406826,0.8119469c-1.1779022,0.0323334-2.3370781,0.0731468-3.4706955,0.1242065  c0.0578918-0.631443,0.13451-1.2731934,0.2246742-1.9251289C38.6503639,31.7320137,39.6018867,32.0502663,40.5006409,32.5149841z   M39.0435867,24.739563c0.0255623-0.073204,0.0527687-0.1446991,0.0799751-0.2161942  c0.0425797,0.0051231,0.0868683,0.0085392,0.1293869,0.0136642c0.003418,0.0136032,0.0051231,0.0289154,0.0085411,0.0425186  c0.4766159,2.6230011,1.1387405,5.1030712,1.9710617,7.4077606c-0.0442276-0.0255604-0.0885124-0.0493526-0.13274-0.0749111  C40.0121307,29.5975227,39.2376366,27.1259937,39.0435867,24.739563z M57.6310959,18.8126488  c-1.5183601-1.3208351-3.0502663-2.685957-4.4392395-4.1208658c-0.554882-0.5719023-1.1165962-1.1438637-1.6936226-1.7004538  c0.1310349-0.0118971,0.2604218-0.0221443,0.3897476-0.0323324c1.525135,0.1497631,2.9737053,0.5276747,4.2860603,1.1183043  C56.8106651,15.6892405,57.2736168,17.3283882,57.6310959,18.8126488z M57.2531815,14.6713476  c0.5753784,0.7166004,1.0349159,1.5727758,1.4434509,2.3914957c-0.0800362,0.4953423-0.1804466,0.9941006-0.3030014,1.4945068  C58.0974617,17.3318043,57.7280884,16.004137,57.2531815,14.6713476z M52.1484642,12.1266146  c-0.0851593,0.0068312-0.1702576,0.0136623-0.2553558,0.0187273c-0.015255,0-0.0289192-0.001708-0.0459366-0.0034161  l3.1149254-0.6621246c0.1583023,0.2876883,0.3098335,0.5804415,0.4561806,0.8749027  C54.3560982,12.0057669,53.2258949,12.0483465,52.1484642,12.1266146z M51.6803284,11.3487654  c-0.5259056,0.1123075-1.0535812,0.2280903-1.5796051,0.3506441c-1.7667694-1.5472755-3.668045-2.8647528-5.7991791-3.5813541  c1.2187157-0.8391552,2.5582809-1.5472164,4.0085602-1.960875c0.2366295-0.0663719,0.479969-0.1259117,0.7302055-0.1753225  c0.7183647,0.2179012,1.3974533,0.5362139,2.0000381,0.9532299c1.4298439,0.9889183,2.5719414,2.3200002,3.4911308,3.8076768  L51.6803284,11.3487654z M50.4377632,13.0917397c0.7472801,0.6995811,1.4724236,1.4332018,2.1821899,2.1651735  c1.6647072,1.72083,3.5183411,3.3293543,5.3123741,4.8851099c-0.0101891,0.0306835-0.0203743,0.061306-0.0306244,0.0919304  c-1.4740143-0.4578285-2.9753532-0.8051147-4.4919434-1.0366211c-0.350647-0.1054764-0.7047043-0.2025299-1.0621223-0.2927532  c0.3744354-0.6399822,0.752346-1.2068195,1.1216621-1.6851425c0.1362152-0.1752625,0.1038857-0.4306202-0.0697899-0.5684853  c-0.1753197-0.137867-0.4272041-0.1072426-0.5634193,0.0697861c-0.4050636,0.5225506-0.8204308,1.1540527-1.2289047,1.86553  c-1.1608849-0.6876259-2.4204712-1.1200123-3.571106-1.4808464c-1.7940941-0.5634212-3.6068573-1.0366192-5.431572-1.4195967  c1.0519333-0.8408632,2.267231-1.4774876,3.5898323-1.9897909C47.6019821,13.4423847,49.0182228,13.2398539,50.4377632,13.0917397z   M41.8606377,23.0067768l0.4340973,1.6528111c-0.2382812-0.1310959-0.483448-0.2502346-0.7353287-0.3557682  C41.5917358,23.835743,41.6938553,23.3931694,41.8606377,23.0067768z M40.77808,24.0246696  c-0.2757301-0.0817413-0.554882-0.1498222-0.8357391-0.202589c-0.0425758-0.2501736-0.0816803-0.5004082-0.1191368-0.7455158  c0.2552986-0.417017,0.5497589-0.8017006,0.893631-1.1472797c0.2195473-0.2212582,0.4561768-0.4203739,0.7046432-0.5991116  l0.1515312,0.5804424C41.1372643,22.4825172,40.8631821,23.2161388,40.77808,24.0246696z M42.3849564,25.6587524  c0.0714378,0.0476437,0.1412239,0.0952873,0.211071,0.14464l0.692688,2.6400204  c-0.9531708-0.8952789-1.5489235-2.0221233-1.7021027-3.242548C41.8640556,25.3353157,42.1313057,25.4884949,42.3849564,25.6587524z   M42.23172,21.2586784l-0.0969963-0.3710804c1.438324-0.7710762,3.1098022-1.0110607,4.3710976-1.1200123  c0.3387489-0.0289154,0.6757889-0.0510597,1.0127716-0.068079c0.9446907,0.3046494,1.9029846,0.7795563,2.8290062,1.3906231  c-0.1481171,0.3370399-0.2928123,0.684267-0.4323273,1.0366211c-1.0655975-0.684269-2.207695-1.1846771-3.3974953-1.4638252  c-0.8409195-0.1957588-1.6306648-0.2451096-2.3387871-0.1548882C43.4283485,20.6050339,42.7662239,20.8569756,42.23172,21.2586784z   M49.5407143,19.6705914c0.481739,0.0101871,0.9634781,0.0323315,1.4452171,0.068079  c-0.0987625,0.1956978-0.197525,0.3965797-0.2945213,0.5991096C50.3118515,20.0943794,49.928875,19.8697052,49.5407143,19.6705914z   M50.2965393,23.3522968c1.385498,1.0570564,2.5429649,2.4306602,3.4655113,3.9523754  c-1.2476311,1.2987499-2.8323631,2.4324265-4.7506599,2.8341293c-0.0680771,0.0136051-0.137867,0.0272083-0.2059441,0.0391045  C48.9381905,27.9157963,49.5135078,25.5259514,50.2965393,23.3522968z M50.5841675,22.5880527  c0.137867-0.3523521,0.2809181-0.6961651,0.4272652-1.033205c1.5132332,1.1234283,2.9089813,2.5974407,3.9829979,4.267271  c0.001709,0.0034161,0.0034142,0.0068321,0.0051231,0.0085411c-0.209362,0.2825642-0.4340935,0.5667782-0.6723709,0.8476353  C53.2872047,25.0391483,52.0156593,23.6434021,50.5841675,22.5880527z M51.3569527,20.7939606  c0.1600075-0.3386898,0.3233757-0.6655407,0.4885101-0.9804382c0.0561829,0.0051231,0.1123657,0.0102463,0.1701965,0.0170193  c0.2230263,0.1702576,0.4374542,0.3523521,0.6417503,0.551527c1.312294,1.2664185,2.131073,3.087719,2.8426094,4.7387619  c0,0.001709-0.0017662,0.0034161-0.0034142,0.0051231C54.3510323,23.4101887,52.9144173,21.9225121,51.3569527,20.7939606z   M53.4727135,20.062048c1.3702469,0.4306202,2.6655807,0.9804363,3.8655701,1.6374969  c-0.2587166,0.6042347-0.5480537,1.2068195-0.8663635,1.8008671c-0.1327438,0.2484665-0.2842751,0.5174255-0.4527664,0.7999916  C55.3723412,22.8280392,54.6148682,21.2739906,53.4727135,20.062048z M47.7994499,17.8782063  c0.4340363,0.136158,0.8817329,0.2825642,1.3327904,0.4493465c-1.8110542-0.1957569-3.4247017-0.1225548-4.8681526,0.2144871  c-0.8969841,0.1140137-1.7463875,0.3795605-2.5310669,0.8170109l-0.5855675-2.2314854  c0.2213173-0.272377,0.4544716-0.5276737,0.7012901-0.7693672C43.8487816,16.7547779,45.8352165,17.2620163,47.7994499,17.8782063z   M40.8751373,15.3522005c-0.0680809-0.0118961-0.13451-0.0237923-0.2025909-0.0357475  c-0.0272064-0.1055355-0.0544739-0.2127781-0.0816841-0.3200207c0.1650772-0.0476437,0.3285027-0.0935793,0.4902191-0.137867  c0.2842751-0.0782671,0.5701942-0.1548862,0.8544693-0.2297382C41.5764236,14.8568583,41.2223663,15.0969028,40.8751373,15.3522005z   M41.050457,19.9173489c-0.5191917,0.3455791-1.0127678,0.7438679-1.4774857,1.1915073  c-0.0306244-0.3046494-0.0578918-0.6076488-0.0799751-0.9055271c0.2468147-0.7795563,0.5923347-1.5285473,1.0468063-2.2366085  L41.050457,19.9173489z M39.9389267,17.4134865c-0.1940498,0.2945213-0.3710785,0.5957546-0.5310326,0.9038792  c-0.0034142-0.2229671-0.0034142-0.4442825-0.0017052-0.6621265c0.2757301-0.268961,0.5582962-0.5293808,0.8476334-0.7779064  l0.0170212,0.0663719C40.156826,17.0952339,40.0461693,17.2518272,39.9389267,17.4134865z M44.3253975,29.2366314  l-0.6706657-2.5532131c0.9242554,0.8834419,1.7379112,1.996624,2.4391403,3.3328285  C45.4794502,29.8426323,44.8802795,29.5821533,44.3253975,29.2366314z M46.5501099,30.9489822  c0.3216667,0.7098274,0.6161308,1.4740715,0.8816757,2.2927933h-0.4238472c-0.5259094,0-1.0484581,0.001709-1.5693626,0.0051231  c-0.2434006-0.7506409-0.4527626-1.4910927-0.6366234-2.1872578l-0.1956978-0.7472248  C45.2275085,30.6136494,45.88451,30.8264275,46.5501099,30.9489822z M47.0079384,34.9439354  c0.3064156,0,0.6128311,0,0.9191895,0.001709c0.0544739,0.2161942,0.1089516,0.4374504,0.1617165,0.6604195  c0.284214,1.2119408,0.5123634,2.4357796,0.6859169,3.6647453c-1.1744843-1.0825577-2.0510368-2.6587486-2.7217026-4.3251648  C46.3713722,34.9439354,46.6896248,34.9439354,47.0079384,34.9439354z M47.4726562,31.0579338  c0.1701965,0.0085392,0.3386879,0.0118961,0.5072365,0.0085392c-0.0034142,0.4969902,0.0153122,0.9872112,0.0596008,1.4655323  C47.8607559,32.0196419,47.6735382,31.5294247,47.4726562,31.0579338z M48.005455,30.2562332  c-0.3030014,0.0084801-0.609417-0.0051231-0.9140663-0.0425797c-1.0161858-2.1106377-2.2843132-3.7481365-3.7941322-4.8936501  l-0.8391571-3.1949615c1.1744881-1.1455116,3.0843048-0.8578835,3.8809395-0.6723137  c1.1982803,0.2808571,2.2962074,0.7727833,3.2885437,1.4246616C48.7696991,25.2144699,48.138195,27.8051395,48.005455,30.2562332z   M49.1764679,30.931963c1.7770729-0.3710804,3.4775276-1.3684788,5.0025978-2.9004421  c0.9362106,1.7276611,1.5830231,3.6034374,1.92519,5.4008865c-2.3047485-0.0987015-4.7013092-0.1616592-7.1677742-0.1820946  c-0.1174316-0.7200165-0.1684914-1.4740715-0.1599503-2.2485638C48.910923,30.9830227,49.0437241,30.9592304,49.1764679,30.931963z   M56.3476562,35.1465263c0.1583023,1.7055168,0.0425797,3.2051506-0.3438148,4.4817581  c-1.3089371,0.6502266-2.5532112,1.1114731-3.8128586,1.0893288c-1.2800217-1.7906189-2.2502136-3.7361832-2.8493805-5.7600708  C51.7263222,34.9813919,54.0735931,35.0460548,56.3476562,35.1465263z M54.7646904,27.4084988  c0.2348633-0.2654858,0.4629517-0.5446339,0.6876259-0.8357391c1.1830292,2.0392017,2.1174698,4.4970703,2.3046875,6.9345608  c-0.274025-0.0136032-0.5514641-0.0255013-0.828907-0.0391655C56.5382881,31.2690029,55.7876511,29.2094231,54.7646904,27.4084988z   M58.4481049,36.1830864c-0.0221405,0.7796173-0.1208458,1.5455704-0.3115387,2.2911453  c-0.1684303,0.0987015-0.3403969,0.1974068-0.5157204,0.2944603C58.0327988,37.941433,58.3000526,37.0716553,58.4481049,36.1830864z   M56.408905,25.2042809c0.2655449-0.4187832,0.5226097-0.8579407,0.7677193-1.3157692  c0.3166046-0.5906906,0.6042328-1.1864433,0.8629456-1.7855549c0.1106606,0.0663719,0.2196083,0.1327438,0.3268509,0.2008228  c0.767662,4.1957779,1.0060005,7.9354343,0.7182503,11.2716179C58.665947,30.7464523,57.5510597,27.8715096,56.408905,25.2042809z   M59.0897942,21.8118534c-0.0203743-0.1157227-0.0425186-0.2315063-0.0663719-0.347229  c0.2519417,0.0919304,0.5021744,0.1872196,0.7523499,0.2842731c0.1872787,0.1650753,0.3744965,0.3319168,0.5600052,0.5004063  l0.0663719,0.5004673C59.98172,22.4212112,59.5442657,22.1080227,59.0897942,21.8118534z M59.8830147,33.6298752  c0.2757339-3.2000275,0.0766182-6.7541142-0.5940437-10.7064896c0.4408646,0.3148956,0.8646545,0.6451054,1.2681236,0.9906254  l0.8408661,6.3524113c0.1650734,1.2511063,0.2910423,2.4170532,0.2025299,3.4792328  C61.0370674,33.7047844,60.4634552,33.6656227,59.8830147,33.6298752z M61.2158051,35.4273834  c-0.0374565,0.0935783-0.0800362,0.1855087-0.1242638,0.2774391c-0.4187241,0.8544693-1.0757828,1.5064049-1.8791924,2.0800171  c0.1940498-0.7932205,0.3540611-1.6136475,0.4749069-2.4596329C60.2030373,35.3558884,60.7119827,35.3899269,61.2158051,35.4273834z   M61.2549667,23.085104c0.0544777,0.0493507,0.1072426,0.0987034,0.1616592,0.1497631  c0.073204,0.1872177,0.1446991,0.3744946,0.2161942,0.5617123c-0.1055336-0.0970535-0.2127762-0.1957569-0.3216667-0.2911034  L61.2549667,23.085104z M64.3035278,26.9711075c-0.3898125-0.6025867-0.8204308-1.1813202-1.2902718-1.7328453  c-0.0851021-0.2382774-0.1702003-0.4765568-0.2552986-0.7131844c0.7880936,0.7863865,1.5472717,1.6000423,2.2519226,2.4493866  c-0.0289154,0.3336239-0.0629578,0.6706638-0.1038284,1.0077038C64.7171249,27.6382961,64.516304,27.3030243,64.3035278,26.9711075z   M65.139267,23.5259113c-1.1268463-0.6910419-2.2910881-1.3106461-3.4825935-1.855341  c-0.275795-0.6723137-0.560009-1.3395615-0.8527603-2.0033951l-0.3507042-2.6417294  c1.6885605,1.5301971,3.3260574,3.443428,4.6537247,5.5183201C65.1222458,22.8689098,65.132431,23.1974106,65.139267,23.5259113z   M61.1698112,10.7376995c0.9804382,0.4561796,1.5575218,1.647687,1.994915,2.752387  c0.9447479,2.3949118,1.5523987,4.8732138,1.8196487,7.4554033c-1.3975105-1.9591675-3.0366554-3.7311172-4.6911163-5.1252136  c-0.1974678-1.4876766-0.4425735-3.1591558-0.9736671-4.7319317c-0.0408096-0.1651344-0.0833893-0.3285599-0.1293259-0.4919271  C59.9204712,10.4806356,60.5825958,10.4636154,61.1698112,10.7376995z M59.6719437,17.2313919  c-0.0476418-0.1004696-0.0969925-0.199173-0.1446953-0.2978764c0.0187836-0.1344509,0.0357475-0.268961,0.0528259-0.4017048  L59.6719437,17.2313919z M59.282196,18.2730789c0.2535896,0.5362129,0.5004082,1.0740757,0.7420998,1.6153545l0.1498222,1.1387405  c-0.4375076-0.3863926-0.876667-0.7676601-1.3141212-1.1472206C59.0251312,19.3437386,59.1647072,18.8075848,59.282196,18.2730789z   M58.5485153,11.3164339c0.0578918,0.2399855,0.1072464,0.481679,0.149765,0.7267885  c0.1515312,0.8714876,0.2196083,1.7719498,0.2042961,2.6944962c-0.3063583-0.2178421-0.6110649-0.4204311-0.9123573-0.6076498  c-0.0919304-0.0578909-0.1855125-0.1140738-0.2808571-0.1685495c-0.3403969-0.3965797-0.7183075-0.7522888-1.1489296-1.0433931  c-0.2383347-0.5446949-0.4970512-1.0859728-0.7796135-1.6119394l2.5634613-0.5446939  C58.4157753,10.9436455,58.4838524,11.1291561,58.5485153,11.3164339z M57.1578369,8.638957  c0.330265,0.422081,0.609417,0.8816757,0.8494034,1.3651218l-2.6451454,0.5617142  c-0.9974594-1.6749535-2.2570457-3.1847734-3.8706322-4.2996621c-0.2434044-0.1684909-0.4971123-0.3217282-0.757473-0.4613032  C53.0556984,5.7674313,55.5425415,6.5657153,57.1578369,8.638957z M51.8199615,3.5580306  c1.7089348,0.4544711,3.2851257,1.5949192,4.5123825,3.1506753c-1.9915009-1.4962158-4.53965-1.9149399-6.7813797-1.6289592  c-0.151474,0.0204358-0.3029442,0.04252-0.4510574,0.0680795c-1.3089371-0.3710799-2.7200546-0.4357438-4.0749283-0.1787381  C46.9977493,3.5903623,49.379055,2.9060936,51.8199615,3.5580306z M43.4334717,6.3154826  c0.0425224-0.0187278,0.0868073-0.0391045,0.1293297-0.0578322c1.1421547-0.4936347,2.4238853-0.6893926,3.6783485-0.6025853  c-1.4297867,0.5242586-2.7438469,1.300458-3.930233,2.1770687c-0.207653-0.0494103-0.4170151-0.0919304-0.6280823-0.1293859  c-0.1293869-0.0238514-0.2587738-0.0442281-0.3898087-0.061307C42.640255,7.1767812,43.0215225,6.7308493,43.4334717,6.3154826z   M41.7704163,8.3989124c0.2332115,0.0204363,0.4664268,0.0494108,0.6979332,0.0868073  c-0.5072403,0.4153671-0.9889793,0.8408632-1.4451599,1.2681265C41.2393837,9.2942514,41.4896164,8.8397799,41.7704163,8.3989124z   M40.3083,11.5870438c0.9191895-0.9412746,1.983017-1.9591684,3.1762314-2.8749418  c2.0629959,0.5719614,3.9217529,1.7668848,5.6545372,3.2238779c-0.4783211,0.1225548-0.9548759,0.2536488-1.4230118,0.3949318  c-0.9157753,0.1719065-1.8247147,0.4289122-2.7132225,0.7659521c-1.3906822,0.277441-2.7711143,0.6042337-4.1345291,0.9804373  c-0.1548882,0.0425797-0.3114815,0.0868073-0.4697838,0.1310358c-0.139576-0.6076498-0.2570076-1.2340279-0.3148956-1.8604059  C40.1534119,12.0908661,40.2282639,11.8372765,40.3083,11.5870438z M39.4419365,16.5147915  c0.0101852-0.1923409,0.0237923-0.3846836,0.0391045-0.5736685c0.1770287,0.0272665,0.3523521,0.0561829,0.5293808,0.0834494  C39.8180809,16.1845837,39.6291542,16.34795,39.4419365,16.5147915z M39.9729652,8.4244719  c-0.3131866,0.5906305-0.5293236,1.239152-0.6399803,1.933609c-0.061306,0.3898077-0.0885162,0.7813225-0.0902252,1.171072  c-0.9804344,1.0315561-1.9285431,2.1038656-2.8374863,3.2119818c-1.8349037-0.1770296-3.6766396-0.2638369-5.5217934-0.2587137  C33.0758629,11.0679083,36.5244713,8.8125715,39.9729652,8.4244719z M30.0358448,15.9871178  c0.1140156-0.2349215,0.2348633-0.4647188,0.3608913-0.6928082c1.8025131-0.0186691,3.6034393,0.0477028,5.3957634,0.2042971  c-0.9974556,1.2561712-1.9472694,2.5583372-2.8443146,3.8961916c-0.9531727,1.4247208-1.9897938,3.1081562-2.1974468,5.0707397  c-0.1940498,1.8093452,0.3302078,3.5336514,1.1880913,5.1745052c-0.0220852,0.2842731-0.0323315,0.5702534-0.0340405,0.8561764  c-0.8970451,0.0714951-1.8008652,0.1753216-2.7063923,0.2911034c-0.267252,0.0340405-0.5345058,0.069788-0.8016987,0.1055355  C27.7362213,26.5744686,27.6307449,20.9063263,30.0358448,15.9871178z M28.2145443,34.1099052  c-1.0145359,0.1021194-1.994915,0.2127762-2.9344826,0.3319168c-0.209362-0.696167-0.4000549-1.4076996-0.5753765-2.1277161  c0.5838566-0.148056,1.2102356-0.2671967,1.8808994-0.3574181l0.9242554-0.1259708  c0.073143-0.0101891,0.1481133-0.0204353,0.2229652-0.0306244c0.0425797,0.2535915,0.0885143,0.5021152,0.1362171,0.7438107  C27.9677258,33.057972,28.0834503,33.5805244,28.2145443,34.1099052z M23.377018,25.0595837  c-0.4630108-3.167696-0.6570015-6.6486397,1.4059944-8.4562759c0.830616-0.7285566,1.8962116-1.036622,2.9804173-1.1761961  c0.5566483-0.0714951,1.1183624-0.0970545,1.6545181-0.1123667c0.0187283,0,0.0374546-0.001708,0.0561829-0.001708  c-0.0527668,0.1038857-0.1072426,0.209362-0.1583023,0.3148966c-2.4919662,5.0979462-2.3898468,10.93293-1.7140579,15.3721085  c-0.068079,0.0102482-0.13451,0.0187283-0.202589,0.0272675l-0.9208393,0.1259708  c-0.7098274,0.0952873-1.3617058,0.2212582-1.9574604,0.3744354C24.0459747,29.417078,23.6936226,27.2298203,23.377018,25.0595837z   M23.9319019,32.5337143c0.1651325,0.680851,0.34552,1.3531647,0.5413361,2.0119362  c-1.6664143,0.2246704-3.1983776,0.471489-4.5753956,0.7387428C20.7335815,34.0418243,22.0816841,33.1226349,23.9319019,32.5337143z   M23.9744797,41.2299767c-2.0102272-0.2859802-3.6357708-0.5804443-4.9481239-0.8697815  c-0.1838627-1.0638275-0.1957588-2.1464424,0.0459347-3.1694031c1.303875-0.2842712,2.9157543-0.5770264,4.9021893-0.8578835  c0.3403969-0.0476418,0.684269-0.0953445,1.034914-0.1412811c0.7148914,2.0102272,1.6238346,3.8791733,2.818758,5.5115471  C26.4817581,41.5601845,25.1932545,41.4018822,23.9744797,41.2299767z M28.9260216,41.8121262  c-1.3327904-1.651104-2.3285408-3.6000252-3.099617-5.7243271c0.9174824-0.1123657,1.8689461-0.2161903,2.8477345-0.3131866  c0.6552944,2.1379051,1.5642357,4.2978935,2.7387238,6.257061C30.5669346,41.9653053,29.7362595,41.8921013,28.9260216,41.8121262z   M32.3967171,42.1065865c-1.2544632-1.9761887-2.2212982-4.200901-2.9089813-6.4103012  c0.9582939-0.0885162,1.9438553-0.1702003,2.951561-0.2434006l0.9514618,6.7251968  C33.0571327,42.1559372,32.7252159,42.1321449,32.3967171,42.1065865z M34.2078285,42.2308502l-0.9685402-6.8358574  c0.0629539-0.0050659,0.1259689-0.0084801,0.1889267-0.011898c0.6587677,2.4221802,1.5880852,4.7694473,2.7591591,6.9617691  C35.5201836,42.3108253,34.8597069,42.2734261,34.2078285,42.2308502z M34.2758484,35.4477615  c0.4255562,1.164299,0.9804382,2.2910843,1.6528702,3.358387c0.209362,0.9191322,0.4510574,1.8110542,0.7063522,2.6655197  C35.6563416,39.5584946,34.8631248,37.5328979,34.2758484,35.4477615z M36.6810074,38.4912529  c-0.209362-0.9327965-0.3829765-1.8927994-0.5038223-2.8715286c0.1123657,0.136158,0.2229652,0.2689018,0.3370399,0.4034119  c0.0068321,0.8527603,0.0663719,1.6902084,0.1923409,2.5089264C36.6980286,38.5184593,36.6894875,38.5048561,36.6810074,38.4912529z   M36.6265335,33.4902992c-0.207653,0.0102463-0.4153099,0.0204353-0.621254,0.0306244  c-0.0306816-0.7403946-0.0238533-1.4859695,0.0255013-2.2349014c0.2825623,0.0255604,0.5634193,0.0595989,0.8408623,0.1004124  C36.7712326,32.099678,36.6878395,32.8009682,36.6265335,33.4902992z M36.9907799,30.5762539  c-0.2944603-0.0425797-0.5906296-0.0783272-0.888504-0.1055355c0.2383347-2.1872578,0.8970451-4.2298756,1.8690033-5.9575367  c0.0850983-0.0068321,0.1718483-0.0118961,0.2587128-0.0136051c0.0016479,0.0374565,0.0033569,0.074852,0.0067711,0.1123085  c-0.4238472,1.2357941-0.6893921,2.6162281-0.9395638,4.0851765C37.1882477,29.3319778,37.0844193,29.9583569,36.9907799,30.5762539  z M37.7738113,42.4214821c-0.1395721-0.4221382-0.2757912-0.8578835-0.406826-1.3021049  c0.0680809,0.1872177,0.1412811,0.3710213,0.2195511,0.556591c0.1089478,0.2570038,0.2247314,0.5089455,0.3489342,0.752346  C37.8809967,42.4266052,37.828289,42.4231911,37.7738113,42.4214821z M38.8665581,42.4657707  c-0.0408707-0.0697899-0.0799751-0.1412849-0.1174316-0.21278c0.076561,0.073204,0.1549454,0.146347,0.2332153,0.2178421  C38.9431763,42.4691277,38.9057198,42.4674187,38.8665581,42.4657707z M40.2538223,42.5151215  c-0.8697777-0.7183075-1.6612892-1.5149422-2.3659935-2.3694115c-0.3047104-1.0195999-0.4714928-2.0732422-0.5378647-3.160862  c2.1243019,2.3710594,4.5004845,4.4289894,7.2988701,5.6204948C43.1662216,42.5899734,41.6989784,42.5593491,40.2538223,42.5151215z   M45.0130234,41.8819122c-2.9668159-1.2476921-5.4639053-3.5438995-7.6970978-6.1550026  c0.001709-0.1872177,0.0051231-0.3761444,0.0102463-0.5650711c1.4774284-0.0680809,2.9871902-0.1208458,4.5191536-0.1565933  c0.3370399,0.5650711,0.6893921,1.1114731,1.0502281,1.6391449c0.4800301,0.7012901,1.0417442,1.4876785,1.6834335,2.3013344  c0.7779083,1.237442,1.6221275,2.3880768,2.5260048,3.4383049c0.0085373,0.0442848,0.0170212,0.0902214,0.0255013,0.1345062  C46.3969307,42.3772545,45.6819801,42.1644783,45.0130234,41.8819122z M47.6394386,41.1533585  c-0.5889206-2.2621117-1.6170044-4.3983078-3.0468483-6.195816c0.199173-0.0016518,0.3982887-0.0050659,0.5991707-0.0067749  c0.8442764,2.1753616,2.0204735,4.2587929,3.7294083,5.4792175c0.073204,0.6655388,0.1310921,1.3310814,0.1736145,1.9983292  C48.6062737,42.0436287,48.1228867,41.6197815,47.6394386,41.1533585z M49.2020264,36.9745979  c0.5089455,1.2459831,1.1524048,2.4528046,1.9165878,3.6017914c-0.5207825-0.1276779-1.0008125-0.3387489-1.446804-0.616188  C49.5509644,38.9610329,49.3943672,37.9652863,49.2020264,36.9745979z M50.9007721,42.5849075  c-0.3251419,0.0527687-0.6552925,0.0902252-0.9872093,0.1105995c-0.001709-0.0323296-0.003418-0.0629539-0.0068321-0.0952873  c-0.0306244-0.5515251-0.073204-1.1046982-0.1276779-1.6545181c0.5209007,0.2553596,1.0826149,0.4358025,1.6919136,0.5243187  c0.1004715,0.0153122,0.200882,0.0255013,0.3012924,0.0356903c0.1838608,0.2468147,0.3727875,0.4919243,0.5685463,0.7336197  C51.8727303,42.3908577,51.3909912,42.5048752,50.9007721,42.5849075z M52.7833214,41.5057106  c0.6264381-0.0510597,1.2357941-0.1974068,1.8247185-0.3965836c-0.4595947,0.3285027-0.9548798,0.6060028-1.4740753,0.830677  C53.0148277,41.796814,52.8973961,41.6521149,52.7833214,41.5057106z M54.3714676,42.4946861  c-0.1872177,0.0068321-0.3744965,0.011898-0.5617142,0.0187263c0.3608322-0.1736145,0.7081223-0.3710785,1.0417442-0.5923386  C54.6999702,42.1218987,54.5416679,42.3125305,54.3714676,42.4946861z M55.9697456,42.4333801  c-0.1702003,0.0068321-0.3421059,0.0136604-0.5140114,0.0204353c0.3250847-0.4238472,0.6110649-0.8867989,0.8528175-1.3906212  c0.1140137-0.2366295,0.2161331-0.481739,0.3080063-0.7370377c0.0459938-0.0544739,0.0902214-0.1106606,0.13451-0.1668434  c0.3080635-0.1600075,0.6076508-0.3233757,0.893631-0.479969c0.0408096-0.0221443,0.0799751-0.0442886,0.1208458-0.066433  c-0.0800362,0.1991768-0.1668434,0.3949318-0.2621307,0.5906906C57.0965881,41.037632,56.5672646,41.7746696,55.9697456,42.4333801z   M61.6464233,41.1908112c-0.0476418,0.3098335-0.0969925,0.619606-0.1531754,0.9260216  c-1.2850876,0.0935822-2.6042747,0.1752625-3.9524345,0.2434006c0.2230225-0.4170723,0.4375076-0.880024,0.6485786-1.3958015  c0.2621307-0.6451073,0.4953423-1.3089409,0.7012901-1.9932098c1.1319084-0.69104,2.26894-1.5761909,2.9191704-2.9055634  c0.0936356-0.1889267,0.1736145-0.3812714,0.2416916-0.5770264c0.4051208,0.0289154,0.8034668,0.061306,1.1999893,0.0953445  c-0.3046494,0.9821472-0.6468124,1.9778976-1.0246086,2.9889565C61.9391785,39.3440094,61.7911224,40.281868,61.6464233,41.1908112z   M64.9145279,41.8291435c-0.0254974,0.003418-0.0510559,0.005127-0.0782623,0.0068321  c0.1242599-0.1412811,0.2451096-0.2859802,0.3642502-0.4323845C65.1069336,41.5465813,65.0115891,41.6878624,64.9145279,41.8291435z   M63.6447563,41.94487c-0.4374504,0.0391617-0.8799667,0.0749092-1.3259583,0.1089478  c0.0425186-0.2434006,0.0799751-0.4885101,0.1191368-0.7336197c0.1446991-0.9072342,0.2791519-1.7651176,0.5395737-2.4596329  c0.405117-1.0842667,0.7694244-2.1532173,1.091095-3.2050934c0.3387451,0.0289154,0.6723099,0.0612488,1.0042267,0.0935822  c0.1123734,0.5582962,0.2179642,1.1183014,0.3183136,1.6800156c0.0970535,0.5429878,0.200882,1.2034035,0.2876892,1.9455643  C65.0899124,40.2988892,64.4073486,41.1653099,63.6447563,41.94487z M66.1810074,37.2877884  c-0.0868683-0.4868011-0.1787338-0.9718971-0.2757874-1.4569931c0.270668,0.0289154,0.539566,0.0578308,0.8068237,0.0868073  c0.0697861,0.3778534,0.1344452,0.754055,0.195755,1.1319084c-0.1736145,0.4051208-0.3642502,0.8034058-0.571907,1.1949234  C66.2847748,37.8971481,66.2320099,37.5754776,66.1810074,37.2877884z M66.6609802,41.6504059  c-0.0136642-0.34552-0.0323334-0.68256-0.0578308-1.0110588c0.2263184-0.4085388,0.4391022-0.8272591,0.6365662-1.2578812  c0.0918732,0.7353287,0.1753235,1.4621162,0.2553558,2.1753006C67.2192764,41.5891609,66.9418411,41.6197815,66.6609802,41.6504059z   M67.188652,34.2579613c-0.389801-1.7174759-0.9106445-3.4076824-1.6425629-5.0060177  c0.0646667-0.4357433,0.1224976-0.8697796,0.1719055-1.300457c0.8340378,1.3294315,1.5710678,3.1421947,1.8433914,4.6162663  c0.0970535,0.5310898,0.1242599,1.1284943,0.0970535,1.7429733C67.5035553,34.2937088,67.3469543,34.2749786,67.188652,34.2579613z   M74.4942322,40.4657326c-1.2204208,0.2552948-2.6893692,0.5140114-4.454483,0.7642441  c-0.5685501,0.0800323-1.1506424,0.1583023-1.7481003,0.2315025c-0.1328049-1.1761932-0.272377-2.3881378-0.4494095-3.6085625  c0.1668396-0.5259666,0.3132477-1.1268425,0.4204941-1.7549286c0.6076508,0.074913,1.1999893,0.1531792,1.7770157,0.2349205  c2.0391998,0.287632,3.6817017,0.5889244,5.002594,0.8800278C75.0440521,38.2903709,74.8568344,39.391655,74.4942322,40.4657326z   M75.3964081,40.2682648c0.2774963-0.9498138,0.4289703-1.9165878,0.4442825-2.8698158  c2.280838,0.5531731,3.4400101,1.0604134,4.0068512,1.3821411C79.2450104,39.1244011,77.9734726,39.6759262,75.3964081,40.2682648z"/></g><g id="SvgjsG1109" featureKey="nameFeature-0" transform="matrix(0.8102414639733952,0,0,0.8102414639733952,52.893371884586585,178.2493928072525)" fill="#fff"><path d="M8.08 34.96 l13.96 0 l0 5.04 l-19.44 0 l0 -28 l5.48 0 l0 22.96 z M32.29 40.56 c-6.48 0 -11 -4.28 -11 -10.68 c0 -6.04 4.24 -10.68 10.6 -10.68 c6.64 0 10.44 4.6 10.44 10.4 c0 0.64 0 1.24 -0.12 1.88 l-15.72 0 c0.36 2.6 2.2 4.6 5.88 4.6 c2.56 0 4.12 -1.16 4.92 -2.68 l4.76 1.4 c-1.16 2.64 -4.44 5.76 -9.76 5.76 z M26.49 28.16 l10.68 0 c-0.24 -2.48 -2.16 -4.48 -5.32 -4.48 c-3.08 0 -5.08 2.16 -5.36 4.48 z M43.78 40 l0 -29.2 l5.28 0 l0 29.2 l-5.28 0 z M61.31 40.56 c-6.24 0 -10.84 -4.64 -10.84 -10.68 c0 -6.08 4.6 -10.68 10.84 -10.68 s10.8 4.6 10.8 10.68 c0 6.04 -4.56 10.68 -10.8 10.68 z M61.31 35.76 c3.36 0 5.68 -2.52 5.68 -5.88 s-2.32 -5.88 -5.68 -5.88 c-3.4 0 -5.68 2.52 -5.68 5.88 s2.28 5.88 5.68 5.88 z M85.36000000000001 19.2 c5.28 0 7.96 3.56 7.96 8.96 l0 11.84 l-5.28 0 l0 -10.84 c0 -3.08 -1.4 -5.04 -4.32 -5.04 c-2.96 0 -4.88 2.32 -4.88 5.88 l0 10 l-5.28 0 l0 -29.2 l5.28 0 l0 11.52 c1.4 -1.8 3.6 -3.12 6.52 -3.12 z M125.34 12 l0 4.96 l-9.4 0 l0 23.04 l-5.48 0 l0 -23.04 l-9.4 0 l0 -4.96 l24.28 0 z M137.79000000000002 19.2 c5.28 0 7.96 3.56 7.96 8.96 l0 11.84 l-5.28 0 l0 -10.84 c0 -3.08 -1.4 -5.04 -4.32 -5.04 c-2.96 0 -4.88 2.32 -4.88 5.88 l0 10 l-5.28 0 l0 -29.2 l5.28 0 l0 11.52 c1.4 -1.8 3.6 -3.12 6.52 -3.12 z M157.96000000000004 40.56 c-6.48 0 -11 -4.28 -11 -10.68 c0 -6.04 4.24 -10.68 10.6 -10.68 c6.64 0 10.44 4.6 10.44 10.4 c0 0.64 0 1.24 -0.12 1.88 l-15.72 0 c0.36 2.6 2.2 4.6 5.88 4.6 c2.56 0 4.12 -1.16 4.92 -2.68 l4.76 1.4 c-1.16 2.64 -4.44 5.76 -9.76 5.76 z M152.16000000000003 28.16 l10.68 0 c-0.24 -2.48 -2.16 -4.48 -5.32 -4.48 c-3.08 0 -5.08 2.16 -5.36 4.48 z M174.73000000000002 22.76 c1.2 -2.36 3.52 -3.72 6.68 -3.28 l0 4.96 c-4.32 -0.68 -6.68 1.32 -6.68 6.76 l0 8.8 l-5.28 0 l0 -20.24 l5.28 0 l0 3 z M191.06 40.56 c-5.6 0 -10 -4.56 -10 -10.68 c0 -6.16 4.4 -10.68 10 -10.68 c2.84 0 5.08 1.16 6.52 3 l0 -2.44 l5.32 0 l0 20.24 l-5.32 0 l0 -2.48 c-1.44 1.84 -3.68 3.04 -6.52 3.04 z M191.98000000000002 35.84 c3.2 0 5.76 -2.48 5.76 -6 c0 -3.48 -2.56 -5.92 -5.76 -5.92 c-3.32 0 -5.68 2.44 -5.68 5.92 c0 3.52 2.36 6 5.68 6 z M217.39000000000001 19.2 c5.6 0 9.96 4.52 9.96 10.68 c0 6.12 -4.36 10.68 -9.96 10.68 c-2.88 0 -5.08 -1.2 -6.56 -3.04 l0 10.88 l-5.28 0 l0 -28.64 l5.28 0 l0 2.44 c1.48 -1.84 3.68 -3 6.56 -3 z M216.47000000000003 35.84 c3.32 0 5.68 -2.48 5.68 -6 c0 -3.48 -2.36 -5.92 -5.68 -5.92 c-3.2 0 -5.76 2.44 -5.76 5.92 c0 3.52 2.56 6 5.76 6 z M243.8 19.76 l5.64 0 l-12.16 28.64 l-5.44 0 l3.68 -8.84 l-9.16 -19.8 l5.8 0 l6 13.68 z"/></g><g id="SvgjsG1110" featureKey="sloganFeature-0" transform="matrix(0.4630998242777271,0,0,0.4630998242777271,74.72564798140209,224.36959307759886)" fill="#fff"><path d="M22.3 6 c0.26 0 0.32 0.64 0.06 0.68 c-0.8 0.12 -1.42 0.42 -2.08 2.12 l-3.02 7.84 c-0.64 1.66 -0.96 2.58 -0.96 3.36 c0 0.12 -1.4 0.44 -1.46 0.3 l-3.14 -8 l-1.88 4.34 c-0.72 1.66 -0.96 2.56 -0.96 3.36 c0 0.12 -1.42 0.44 -1.48 0.3 l-4.56 -11.48 c-0.68 -1.72 -1.28 -2.02 -2.06 -2.14 c-0.26 -0.04 -0.2 -0.68 0.06 -0.68 l5.2 0 c0.26 0 0.3 0.64 0.06 0.68 c-0.92 0.16 -1.4 0.58 -0.8 2.12 l3.16 8.16 l2.04 -4.72 c0.46 -1.06 0.52 -1.7 -0.02 -3.08 c-0.74 -1.9 -1.26 -2.34 -1.78 -2.48 c-0.22 -0.06 -0.2 -0.68 0.06 -0.68 l3.98 0 c0.2 0 0.26 0.06 0.26 0.16 c0 0.26 -0.88 0.88 -0.2 2.64 l3.08 8 l3.04 -8 c0.66 -1.72 0 -1.94 -0.96 -2.12 c-0.22 -0.04 -0.18 -0.68 0.06 -0.68 l4.3 0 z M27.2325 20.04 c-0.2 0.02 -0.28 -0.68 -0.12 -0.72 c1.16 -0.3 2.06 -0.48 2.06 -1.96 l0 -8.88 c0 -1.28 -0.82 -1.62 -1.68 -1.84 c-0.16 -0.04 -0.06 -0.7 0.1 -0.68 c1.46 0.16 3.98 0.12 5.2 0.12 c1.82 0 3.14 -0.08 4.78 -0.12 c0.48 0 0.48 0.32 0.38 0.78 l-0.48 1.9 c-0.06 0.28 -0.56 0.28 -0.64 0 c-0.3 -0.98 -0.9 -1.54 -3.4 -1.54 c-1.4 0 -1.86 0.36 -1.86 1.4 l0 3.26 c0 0.52 0.26 0.62 0.66 0.62 l0.44 0 c1.62 0 3.02 -0.16 3.84 -0.9 c0.2 -0.18 0.64 -0.14 0.46 0.26 l-1.14 2.52 c-0.16 0.36 -0.46 0.32 -0.68 0.02 c-0.46 -0.64 -1.48 -0.9 -2.64 -0.9 l-0.28 0 c-0.4 0 -0.66 0.1 -0.66 0.62 l0 3.36 c0 1.14 0.48 1.56 2.14 1.56 c3.02 0 4.22 -1.38 4.7 -2.14 c0.14 -0.22 0.68 -0.12 0.68 0.22 c0 1.02 -0.86 3.04 -2.12 3.04 c-1.12 -0.06 -2.22 -0.12 -3.9 -0.12 c-1.84 0 -4.02 -0.06 -5.84 0.12 z M64.67750000000001 20.2 c-0.34 0 -0.52 -0.14 -0.74 -0.38 l-9.52 -9.96 l0 7.6 c0 1.36 0.8 1.58 1.94 1.86 c0.16 0.04 0.08 0.68 -0.12 0.68 l-4.74 0 c-0.16 0 -0.28 -0.62 -0.1 -0.68 c0.84 -0.28 1.64 -0.44 1.64 -1.86 l0 -7.76 c0 -1.42 -0.22 -2.1 -0.74 -2.8 c-0.18 -0.24 -0.36 -0.4 -0.36 -0.46 c0 -0.18 0.12 -0.44 0.4 -0.44 l1.48 0 c0.2 0 0.34 0.02 0.48 0.18 l9.32 9.86 l0 -7.52 c0 -1.42 -0.9 -1.58 -1.94 -1.84 c-0.16 -0.04 -0.08 -0.68 0.12 -0.68 l4.74 0 c0.16 0 0.26 0.64 0.1 0.68 c-0.88 0.26 -1.64 0.42 -1.64 1.84 l0 7.78 c0 1.32 0.04 2.78 0.24 3.52 c0.08 0.3 -0.24 0.38 -0.56 0.38 z M79.25 20.32 c-4.16 0 -7.22 -3.08 -7.22 -7.24 c0 -4.04 2.88 -7.4 7.26 -7.4 c4.18 0 7.22 3.06 7.22 7.22 c0 4.06 -2.86 7.42 -7.26 7.42 z M80.03 18.96 c1.76 0 4.1 -1.16 4.1 -4.94 c0 -4.04 -2.74 -6.98 -5.62 -6.98 c-1.76 0 -4.08 1.16 -4.08 4.92 c0 4.08 2.74 7 5.6 7 z M106.52250000000001 19.5 c0.16 0 0.12 0.54 0 0.58 c-1.26 0.42 -3 0.36 -4.2 -1.18 l-3.08 -3.96 c-0.86 -1.12 -1.88 -1.28 -3.28 -1.3 l0 3.88 c0 1.4 0.96 1.64 2.24 1.8 c0.14 0.02 0.04 0.68 -0.12 0.68 l-6.06 0 c-0.16 0 -0.28 -0.66 -0.12 -0.68 c1.02 -0.14 1.66 -0.54 1.66 -1.8 l0 -8.92 c0 -1.32 -0.7 -1.7 -1.66 -1.96 c-0.16 -0.04 -0.06 -0.7 0.12 -0.68 c0.78 0.1 1.66 0.12 2.3 0.12 c1.48 0 2.86 -0.12 3.82 -0.12 c3.02 0 5.04 1.24 5.04 3.7 c0 2.32 -1.88 3.46 -3.56 3.56 l0 0.1 c0.8 0 1.38 0.34 2.26 1.44 l2.98 3.74 c0.62 0.78 1.22 1 1.66 1 z M96.5425 12.719999999999999 c2.98 0 4.12 -0.52 4.12 -2.52 c0 -2.14 -1.36 -3.2 -3.14 -3.2 c-1.18 0 -1.56 0.48 -1.56 1.6 l0 4.12 l0.58 0 z M128.955 19.32 c0.16 0.02 0.04 0.68 -0.1 0.68 l-5.22 0 c-0.14 0 -0.24 -0.66 -0.12 -0.68 c0.84 -0.14 1.46 -0.54 1.4 -1.8 l-0.38 -6.72 l-3.24 6.6 c-0.42 0.86 -0.74 1.74 -0.8 2.06 c-0.04 0.24 -0.46 0.36 -0.78 0.36 c-0.3 0 -0.5 -0.12 -0.62 -0.36 l-4.62 -8.76 l-0.3 6.82 c-0.06 1.4 0.76 1.72 1.4 1.8 c0.16 0.02 0.04 0.68 -0.1 0.68 l-4.14 0 c-0.16 0 -0.28 -0.66 -0.12 -0.68 c0.86 -0.1 1.58 -0.4 1.66 -1.8 l0.64 -11.48 c0.02 -0.34 0.78 -0.36 0.98 0 l5.8 10.84 l5.38 -10.84 c0.18 -0.36 0.98 -0.34 1 0 l0.64 11.48 c0.08 1.4 0.8 1.7 1.64 1.8 z M148.6875 19.32 c0.28 0.04 0.2 0.68 -0.04 0.68 l-5.28 0 c-0.26 0 -0.28 -0.64 -0.06 -0.68 c0.74 -0.14 1.54 -0.4 0.8 -2.12 l-0.22 -0.5 c-0.2 -0.48 -0.54 -0.52 -1.14 -0.52 l-4.08 0 c-0.6 0 -0.94 0.04 -1.14 0.52 l-0.2 0.5 c-0.7 1.72 0.06 1.98 1.02 2.12 c0.26 0.04 0.2 0.68 -0.06 0.68 l-4.32 0 c-0.24 0 -0.3 -0.64 -0.06 -0.68 c0.82 -0.14 1.3 -0.42 2.04 -2.12 l3.38 -7.76 c0.78 -1.76 1.02 -2.58 1.02 -3.34 c0 -0.12 1.4 -0.44 1.46 -0.3 l4.88 11.38 c0.72 1.7 1.2 2.02 2 2.14 z M142.60750000000002 15.059999999999999 c0.28 0 0.58 -0.04 0.46 -0.32 l-2.34 -5.6 l-2.36 5.6 c-0.12 0.28 0.18 0.32 0.46 0.32 l3.78 0 z M153.48 20.04 c-0.2 0.02 -0.28 -0.68 -0.12 -0.72 c1.16 -0.3 2.06 -0.48 2.06 -1.96 l0 -8.88 c0 -1.4 -0.82 -1.68 -1.68 -1.8 c-0.16 -0.02 -0.04 -0.68 0.1 -0.68 l5.52 0 c0.14 0 0.24 0.66 0.1 0.68 c-0.84 0.1 -1.64 0.4 -1.64 1.8 l0 8.88 c0 1.14 0.48 1.56 2.14 1.56 c3.02 0 4.22 -1.38 4.7 -2.14 c0.14 -0.22 0.68 -0.12 0.68 0.22 c0 1.02 -0.86 3.04 -2.12 3.04 c-1.12 -0.06 -2.22 -0.12 -3.9 -0.12 c-1.84 0 -4.02 -0.06 -5.84 0.12 z M170.3525 20 c-0.16 0 -0.28 -0.66 -0.12 -0.68 c1.02 -0.14 1.66 -0.54 1.66 -1.8 l0 -9.04 c0 -1.26 -0.64 -1.66 -1.66 -1.8 c-0.16 -0.02 -0.04 -0.68 0.12 -0.68 l5.48 0 c0.16 0 0.28 0.66 0.12 0.68 c-0.86 0.12 -1.66 0.4 -1.66 1.8 l0 9.04 c0 1.4 0.8 1.68 1.66 1.8 c0.16 0.02 0.04 0.68 -0.12 0.68 l-5.48 0 z M190.60500000000002 20.12 c-1.1 -0.28 -3.14 -0.22 -5.12 -0.22 c-1.74 0 -3.3 0.04 -4.44 0.16 c-0.18 0.02 -0.38 -0.44 -0.28 -0.6 l8.14 -12.2 l-3.54 -0.02 c-2.26 -0.02 -2.98 0.56 -3.5 1.18 c-0.22 0.26 -0.76 0.1 -0.64 -0.26 l0.72 -2.02 c0.12 -0.34 0.52 -0.32 0.76 -0.26 c1.1 0.28 3.1 0.22 4.86 0.22 c1.64 0 3.2 -0.04 4.34 -0.16 c0.18 -0.02 0.38 0.44 0.28 0.6 l-8.14 12.2 l3.9 0.02 c2.26 0.02 2.98 -0.56 3.5 -1.18 c0.22 -0.26 0.76 -0.1 0.64 0.26 l-0.72 2.02 c-0.12 0.34 -0.52 0.32 -0.76 0.26 z M197.2175 20.04 c-0.2 0.02 -0.28 -0.68 -0.12 -0.72 c1.16 -0.3 2.06 -0.48 2.06 -1.96 l0 -8.88 c0 -1.28 -0.82 -1.62 -1.68 -1.84 c-0.16 -0.04 -0.06 -0.7 0.1 -0.68 c1.46 0.16 3.98 0.12 5.2 0.12 c1.82 0 3.14 -0.08 4.78 -0.12 c0.48 0 0.48 0.32 0.38 0.78 l-0.48 1.9 c-0.06 0.28 -0.56 0.28 -0.64 0 c-0.3 -0.98 -0.9 -1.54 -3.4 -1.54 c-1.4 0 -1.86 0.36 -1.86 1.4 l0 3.26 c0 0.52 0.26 0.62 0.66 0.62 l0.44 0 c1.62 0 3.02 -0.16 3.84 -0.9 c0.2 -0.18 0.64 -0.14 0.46 0.26 l-1.14 2.52 c-0.16 0.36 -0.46 0.32 -0.68 0.02 c-0.46 -0.64 -1.48 -0.9 -2.64 -0.9 l-0.28 0 c-0.4 0 -0.66 0.1 -0.66 0.62 l0 3.36 c0 1.14 0.48 1.56 2.14 1.56 c3.02 0 4.22 -1.38 4.7 -2.14 c0.14 -0.22 0.68 -0.12 0.68 0.22 c0 1.02 -0.86 3.04 -2.12 3.04 c-1.12 -0.06 -2.22 -0.12 -3.9 -0.12 c-1.84 0 -4.02 -0.06 -5.84 0.12 z M224.38250000000002 20 c-0.18 0 -0.3 -0.64 -0.14 -0.66 c1.38 -0.18 2.3 -0.46 2.3 -1.54 l0 -9.86 c0 -0.5 -0.18 -0.66 -0.66 -0.66 l-0.54 0 c-1.9 0 -2.96 0.44 -3.36 1.3 c-0.18 0.4 -0.86 0.34 -0.78 0 c0.18 -0.72 0.34 -1.34 0.46 -2.4 c0.04 -0.38 0.26 -0.36 0.62 -0.32 c0.92 0.1 1.76 0.14 5.56 0.14 s5.14 -0.04 6.1 -0.14 c0.36 -0.04 0.7 -0.06 0.58 0.32 c-0.3 0.94 -0.5 1.68 -0.62 2.4 c-0.06 0.34 -0.6 0.36 -0.68 0 c-0.2 -0.84 -1.08 -1.3 -2.8 -1.3 l-0.62 0 c-0.48 0 -0.78 0.16 -0.78 0.66 l0 9.86 c0 1.08 0.92 1.36 2.3 1.54 c0.16 0.02 0.04 0.66 -0.14 0.66 l-6.8 0 z M254.475 19.32 c0.16 0.02 0.04 0.68 -0.12 0.68 l-5.48 0 c-0.16 0 -0.28 -0.66 -0.12 -0.68 c1.02 -0.14 1.66 -0.54 1.66 -1.8 l0 -3.44 c-0.1 -0.34 -0.52 -0.34 -0.9 -0.34 l-5.12 0 c-0.38 0 -0.8 0 -0.9 0.34 l0 3.44 c0 1.4 0.8 1.68 1.66 1.8 c0.16 0.02 0.04 0.68 -0.12 0.68 l-5.48 0 c-0.16 0 -0.28 -0.66 -0.12 -0.68 c1.02 -0.14 1.66 -0.54 1.66 -1.8 l0 -9.04 c0 -1.26 -0.64 -1.66 -1.66 -1.8 c-0.16 -0.02 -0.04 -0.68 0.12 -0.68 l5.48 0 c0.16 0 0.28 0.66 0.12 0.68 c-0.86 0.12 -1.66 0.4 -1.66 1.8 l0 3.66 c0.1 0.34 0.52 0.34 0.9 0.34 l5.12 0 c0.38 0 0.8 0 0.9 -0.34 l0 -3.66 c0 -1.26 -0.64 -1.66 -1.66 -1.8 c-0.16 -0.02 -0.04 -0.68 0.12 -0.68 l5.48 0 c0.16 0 0.28 0.66 0.12 0.68 c-0.86 0.12 -1.66 0.4 -1.66 1.8 l0 9.04 c0 1.4 0.8 1.68 1.66 1.8 z M259.4675 20.04 c-0.2 0.02 -0.28 -0.68 -0.12 -0.72 c1.16 -0.3 2.06 -0.48 2.06 -1.96 l0 -8.88 c0 -1.28 -0.82 -1.62 -1.68 -1.84 c-0.16 -0.04 -0.06 -0.7 0.1 -0.68 c1.46 0.16 3.98 0.12 5.2 0.12 c1.82 0 3.14 -0.08 4.78 -0.12 c0.48 0 0.48 0.32 0.38 0.78 l-0.48 1.9 c-0.06 0.28 -0.56 0.28 -0.64 0 c-0.3 -0.98 -0.9 -1.54 -3.4 -1.54 c-1.4 0 -1.86 0.36 -1.86 1.4 l0 3.26 c0 0.52 0.26 0.62 0.66 0.62 l0.44 0 c1.62 0 3.02 -0.16 3.84 -0.9 c0.2 -0.18 0.64 -0.14 0.46 0.26 l-1.14 2.52 c-0.16 0.36 -0.46 0.32 -0.68 0.02 c-0.46 -0.64 -1.48 -0.9 -2.64 -0.9 l-0.28 0 c-0.4 0 -0.66 0.1 -0.66 0.62 l0 3.36 c0 1.14 0.48 1.56 2.14 1.56 c3.02 0 4.22 -1.38 4.7 -2.14 c0.14 -0.22 0.68 -0.12 0.68 0.22 c0 1.02 -0.86 3.04 -2.12 3.04 c-1.12 -0.06 -2.22 -0.12 -3.9 -0.12 c-1.84 0 -4.02 -0.06 -5.84 0.12 z M291.03999999999996 19.5 c0.16 0 0.12 0.54 0 0.58 c-1.26 0.42 -3 0.36 -4.2 -1.18 l-3.08 -3.96 c-0.86 -1.12 -1.88 -1.28 -3.28 -1.3 l0 3.88 c0 1.4 0.96 1.64 2.24 1.8 c0.14 0.02 0.04 0.68 -0.12 0.68 l-6.06 0 c-0.16 0 -0.28 -0.66 -0.12 -0.68 c1.02 -0.14 1.66 -0.54 1.66 -1.8 l0 -8.92 c0 -1.32 -0.7 -1.7 -1.66 -1.96 c-0.16 -0.04 -0.06 -0.7 0.12 -0.68 c0.78 0.1 1.66 0.12 2.3 0.12 c1.48 0 2.86 -0.12 3.82 -0.12 c3.02 0 5.04 1.24 5.04 3.7 c0 2.32 -1.88 3.46 -3.56 3.56 l0 0.1 c0.8 0 1.38 0.34 2.26 1.44 l2.98 3.74 c0.62 0.78 1.22 1 1.66 1 z M281.05999999999995 12.719999999999999 c2.98 0 4.12 -0.52 4.12 -2.52 c0 -2.14 -1.36 -3.2 -3.14 -3.2 c-1.18 0 -1.56 0.48 -1.56 1.6 l0 4.12 l0.58 0 z M310.29249999999996 19.32 c0.28 0.04 0.2 0.68 -0.04 0.68 l-5.28 0 c-0.26 0 -0.28 -0.64 -0.06 -0.68 c0.74 -0.14 1.54 -0.4 0.8 -2.12 l-0.22 -0.5 c-0.2 -0.48 -0.54 -0.52 -1.14 -0.52 l-4.08 0 c-0.6 0 -0.94 0.04 -1.14 0.52 l-0.2 0.5 c-0.7 1.72 0.06 1.98 1.02 2.12 c0.26 0.04 0.2 0.68 -0.06 0.68 l-4.32 0 c-0.24 0 -0.3 -0.64 -0.06 -0.68 c0.82 -0.14 1.3 -0.42 2.04 -2.12 l3.38 -7.76 c0.78 -1.76 1.02 -2.58 1.02 -3.34 c0 -0.12 1.4 -0.44 1.46 -0.3 l4.88 11.38 c0.72 1.7 1.2 2.02 2 2.14 z M304.2125 15.059999999999999 c0.28 0 0.58 -0.04 0.46 -0.32 l-2.34 -5.6 l-2.36 5.6 c-0.12 0.28 0.18 0.32 0.46 0.32 l3.78 0 z M327.085 10.24 c0 3.56 -3.34 5.06 -7.76 4.4 l0 2.88 c0 1.4 0.96 1.64 2.24 1.8 c0.14 0.02 0.04 0.68 -0.12 0.68 l-6.06 0 c-0.16 0 -0.28 -0.66 -0.12 -0.68 c1.02 -0.14 1.66 -0.54 1.66 -1.8 l0 -8.92 c0 -1.32 -0.7 -1.7 -1.66 -1.96 c-0.16 -0.04 -0.06 -0.7 0.12 -0.68 c0.78 0.1 1.66 0.12 2.3 0.12 c1.48 0 2.72 -0.12 3.74 -0.12 c3.1 0 5.66 1.14 5.66 4.28 z M320.925 7 c-1.26 0 -1.6 0.44 -1.6 1.6 l0 5.06 c3.4 0.48 5.18 -0.34 5.18 -2.96 c0 -2.38 -1.52 -3.7 -3.58 -3.7 z M345.8775 6 c0.24 0 0.3 0.64 0.06 0.68 c-0.78 0.12 -1.46 0.68 -2.38 2.12 l-3.2 5 l0 3.72 c0 1.4 0.8 1.64 2.04 1.8 c0.14 0.02 0.04 0.68 -0.12 0.68 l-6.26 0 c-0.16 0 -0.26 -0.66 -0.12 -0.68 c1.32 -0.18 2.06 -0.44 2.06 -1.8 l0 -3.64 l-3.36 -5.06 c-0.92 -1.38 -1.48 -2 -2.34 -2.14 c-0.26 -0.04 -0.2 -0.68 0.06 -0.68 l5.28 0 c0.26 0 0.3 0.64 0.06 0.68 c-0.88 0.14 -1.22 0.82 -0.36 2.12 l2.54 3.78 l2.44 -3.78 c0.84 -1.3 0.34 -1.96 -0.72 -2.12 c-0.28 -0.04 -0.2 -0.68 0.04 -0.68 l4.28 0 z"/></g>
			</g>
		</svg>
	